# xmcd
#
# Track frame offsets:
#	183
#	15823
#	28728
#	44430
#	61050
#	76245
#	92730
#	109838
#	126895
#	143385
#	159175
#	175245
#	191170
#	207170
#	228990
#	246698
#
# Disc length: 3499 seconds
#
# Revision: 1
# Processed by: cddbd v1.5.1PL0 Copyright (c) Steve Scherf et al.
# Submitted via: EasyCDDAExtractor 7.5.0.1
#
DISCID=ca0da910
DTITLE=The Cats - The Very Best Of
DYEAR=1991
DGENRE=Country
TTITLE0=La Diligence
TTITLE1=Love Is A Golden Ring
TTITLE2=Darling' Oh' Darling
TTITLE3=Lovers Don't Talk
TTITLE4=Hey Baby (Won't You Come Out Tonight)
TTITLE5=Spanish Harlem
TTITLE6=I Could Never Hurt
TTITLE7=Samaina
TTITLE8=She's So In Love
TTITLE9=Call Me
TTITLE10=Second Pair Of Eyes
TTITLE11=Sail Away
TTITLE12=Stop Messing Around
TTITLE13=El Paso
TTITLE14=Stay In My Life
TTITLE15=Let's Spend The Night
EXTD=
EXTT0=
EXTT1=
EXTT2=
EXTT3=
EXTT4=
EXTT5=
EXTT6=
EXTT7=
EXTT8=
EXTT9=
EXTT10=
EXTT11=
EXTT12=
EXTT13=
EXTT14=
EXTT15=
PLAYORDER=
